<svg width="20" height="20" viewBox="0 0 20 20" fill="none" xmlns="http://www.w3.org/2000/svg">
<path fill-rule="evenodd" clip-rule="evenodd" d="M16.2963 9.97C15.9563 10.59 15.2963 11 14.5463 11H7.09634L5.99634 13H17.9963V15H5.99634C4.47634 15 3.51634 13.37 4.24634 12.03L5.59634 9.59L1.99634 2H-0.00366211V0H3.26634L4.20634 2H19.0063C19.7663 2 20.2463 2.82 19.8763 3.48L16.2963 9.97ZM17.3063 4H5.15634L7.52634 9H14.5463L17.3063 4ZM5.99634 16C4.89634 16 4.00634 16.9 4.00634 18C4.00634 19.1 4.89634 20 5.99634 20C7.09634 20 7.99634 19.1 7.99634 18C7.99634 16.9 7.09634 16 5.99634 16ZM14.0063 18C14.0063 16.9 14.8963 16 15.9963 16C17.0963 16 17.9963 16.9 17.9963 18C17.9963 19.1 17.0963 20 15.9963 20C14.8963 20 14.0063 19.1 14.0063 18Z" fill="#4B4B4B"/>
</svg>
